#!OML:ASF H:\Terrain\Walking\May29\JustinRory\Justin.ASF
:FULLY-SPECIFIED
:DEGREES
1214
root 16.378 9.99274 -6.71335 -129.178 -83.3111 114.735
lowerback 48.7347 1.71657 1.47034
upperback 16.5615 -0.346027 3.5075
thorax -1.91383 -1.68989 3.2187
lowerneck -11.1874 18.6843 -5.73071
upperneck 13.6218 27.6392 -8.86876
head 6.5467 12.4877 0.556517
rclavicle -9.54166e-015 -2.38542e-014
rhumerus 31.4111 33.1581 -52.9345
rradius 91.3595
rwrist -0.457121
rhand 21.9843 10.1363
rfingers 7.12502
rthumb 46.3789 -12.7988
lclavicle -9.54166e-015 -2.38542e-014
lhumerus 18.3733 -23.1499 76.4045
lradius 90.919
lwrist -13.9659
lhand 30.4298 48.018
lfingers 7.12502
lthumb 54.0929 66.793
rfemur -77.172 -10.2719 15.1656
rtibia 75.9565
rfoot 18.258 1.65473
rtoes 19.6773
lfemur -73.7584 12.7712 -19.0877
ltibia 73.0369
lfoot 14.086 -13.334
ltoes -29.6589
1215
root 16.364 10.0016 -6.71575 -125.607 -82.748 111.53
lowerback 48.7306 1.54739 0.998652
upperback 16.4288 -0.740347 3.27937
thorax -2.04645 -1.87333 3.34525
lowerneck -11.0658 18.7204 -5.52916
upperneck 13.6471 27.6792 -9.05257
head 6.58996 12.5017 0.485514
rclavicle -3.18055e-015 2.38542e-015
rhumerus 31.8666 33.7574 -52.9259
rradius 91.7189
rwrist -0.377584
rhand 22.7044 9.63606
rfingers 7.12502
rthumb 47.0456 -13.01
lclavicle -3.18055e-015 2.38542e-015
lhumerus 17.4818 -22.3781 76.5385
lradius 91.8589
lwrist -13.734
lhand 30.3131 48.9499
lfingers 7.12502
lthumb 53.9882 67.7959
rfemur -77.6686 -10.4627 14.6044
rtibia 76.012
rfoot 18.2418 1.85329
rtoes 19.4261
lfemur -74.1072 12.8528 -20.0234
ltibia 73.077
lfoot 13.9829 -13.3593
ltoes -29.7263
1216
root 16.3504 9.99642 -6.72449 -123.674 -82.1023 109.975
lowerback 48.7193 1.50991 0.479376
upperback 16.2411 -0.991922 2.98862
thorax -2.2442 -1.97879 3.37714
lowerneck -10.6699 18.7431 -4.68229
upperneck 13.7207 27.6052 -9.33331
head 6.69717 12.4855 0.296957
rclavicle -1.74931e-014 3.18055e-015
rhumerus 32.042 34.401 -53.3897
rradius 91.9971
rwrist -0.207523
rhand 22.5217 9.51259
rfingers 7.12502
rthumb 46.8766 -13.2078
lclavicle -1.74931e-014 3.18055e-015
lhumerus 16.5133 -21.6584 76.5466
lradius 92.7508
lwrist -13.6479
lhand 29.5377 49.2548
lfingers 7.12502
lthumb 53.2908 68.5612
rfemur -78.3076 -10.3696 14.0182
rtibia 76.1219
rfoot 18.3769 1.67512
rtoes 20.0993
lfemur -74.5519 13.1646 -20.8994
ltibia 73.1439
lfoot 13.9099 -13.4896
ltoes -29.5786
1217
root 16.3393 9.98782 -6.72441 -128.232 -82.5961 114.594
lowerback 48.9194 1.21964 1.21416
upperback 16.2768 -1.03778 3.1521
thorax -2.22299 -1.99584 3.2262
lowerneck -10.5879 18.6271 -4.57767
upperneck 13.5685 27.4121 -9.36319
head 6.64605 12.4117 0.243876
rclavicle -1.11319e-014 4.77083e-015
rhumerus 32.6153 34.8588 -53.2224
rradius 92.2804
rwrist 0.111966
rhand 22.2935 10.0732
rfingers 7.12502
rthumb 46.6654 -12.739
lclavicle -1.11319e-014 4.77083e-015
lhumerus 15.906 -20.8407 76.7376
lradius 93.6063
lwrist -13.5181
lhand 29.918 49.1314
lfingers 7.12502
lthumb 53.6333 68.2144
rfemur -78.3247 -10.05 14.906
rtibia 76.1677
rfoot 18.3665 1.47767
rtoes 20.0776
lfemur -74.7773 13.6085 -20.1451
ltibia 73.2935
lfoot 13.9241 -13.808
ltoes -29.3222
1218
root 16.3236 9.99361 -6.72219 -130.803 -83.1123 117.346
lowerback 49.0766 0.899555 2.01391
upperback 16.2732 -1.05035 3.53523
thorax -2.23526 -2.00162 3.26896
lowerneck -10.6734 18.3373 -5.15738
upperneck 13.1885 27.0595 -9.33358
head 6.45032 12.2501 0.256087
rclavicle 6.36111e-015 2.3059e-014
rhumerus 33.2654 34.9358 -52.2846
rradius 92.5784
rwrist 0.0579203
rhand 22.3092 10.1372
rfingers 7.12502
rthumb 46.6799 -12.6688
lclavicle 6.36111e-015 2.3059e-014
lhumerus 15.4298 -20.3145 77.2812
lradius 94.4595
lwrist -13.2697
lhand 30.8102 49.042
lfingers 7.12502
lthumb 54.4338 67.5824
rfemur -78.3874 -10.0974 15.6353
rtibia 76.2242
rfoot 18.0921 1.74861
rtoes 18.9118
lfemur -75.0467 13.6606 -19.5672
ltibia 73.3862
lfoot 13.939 -13.9783
ltoes -29.3815
